<svg width="756" height="532" viewBox="0 0 756 532" fill="none" xmlns="http://www.w3.org/2000/svg">
<rect width="756" height="532" fill="#C4C4C4"/>
<path d="M440.857 353.429H280.857V209.429H383.714V188.857H280.857C268.286 188.857 258 198.114 258 209.429V353.429C258 364.743 268.286 374 280.857 374H440.857C453.429 374 463.714 364.743 463.714 353.429V260.857H440.857V353.429ZM351.829 320.823L329.429 296.549L298 332.857H423.714L383.257 284.411L351.829 320.823ZM463.714 188.857V158H440.857V188.857H406.571C406.686 188.96 406.571 209.429 406.571 209.429H440.857V240.183C440.971 240.286 463.714 240.183 463.714 240.183V209.429H498V188.857H463.714Z" fill="#F2F2F2"/>
</svg>
