<svg width="499" height="458" viewBox="0 0 499 458" fill="none" xmlns="http://www.w3.org/2000/svg">
<path fill-rule="evenodd" clip-rule="evenodd" d="M260.597 3.90966C301.812 10.7268 331.413 41.0683 368.038 60.5897C411.97 84.0063 481.372 83.247 496.353 129.571C511.371 176.012 458.786 216.503 431.72 257.514C411.79 287.712 384.219 309.02 360.02 336.139C325.745 374.55 310.175 432.746 260.597 449.285C206.389 467.37 141.738 456.422 94.7322 424.643C47.3926 392.639 27.364 335.712 12.6638 281.667C-1.32722 230.23 -7.21373 175.271 13.5027 126.005C33.4217 78.6349 75.626 43.2635 122.691 20.0076C164.963 -0.880129 213.812 -3.82892 260.597 3.90966Z" fill="#874AFF"/>
</svg>
