<svg width="499" height="490" viewBox="0 0 499 490" fill="none" xmlns="http://www.w3.org/2000/svg">
<path fill-rule="evenodd" clip-rule="evenodd" d="M260.597 4.18282C301.812 11.4763 331.413 43.9377 368.038 64.823C411.97 89.8758 481.372 89.0634 496.353 138.623C511.371 188.31 458.786 231.63 431.72 275.506C411.79 307.814 384.219 330.61 360.02 359.625C325.745 400.719 310.175 462.981 260.597 480.677C206.389 500.025 141.738 488.311 94.7322 454.312C47.3926 420.072 27.364 359.168 12.6638 301.347C-1.32722 246.316 -7.21373 187.517 13.5027 134.809C33.4217 84.1291 75.626 46.2863 122.691 21.4055C164.963 -0.941623 213.812 -4.09644 260.597 4.18282Z" fill="#7F3BFF"/>
</svg>
