<svg width="567" height="754" viewBox="0 0 567 754" fill="none" xmlns="http://www.w3.org/2000/svg">
<rect x="-5.29193" y="213" width="187.547" height="339" fill="#874AFF"/>
<path fill-rule="evenodd" clip-rule="evenodd" d="M322.846 145.18C345.757 149.543 360.085 172.932 382.247 179.536C418.421 190.314 469.134 165.716 494.49 196.321C517.198 223.727 522.907 281.705 502.812 325.052C479.211 375.962 424.663 387.951 387.976 426.084C368.123 446.719 345.005 468.781 336.67 497.742C314.72 574.014 356.693 675.846 301.895 725.194C255.613 766.873 241.978 639.637 197.181 623.359C167.066 612.416 127.65 653.334 95.0471 650.032C58.6818 646.348 8.02293 676.07 -4.07128 589.731C-18.8496 484.231 11.8824 504.949 21.883 454.757C29.6582 415.735 56.791 375.417 52.4405 339.404C43.1828 262.768 -32.5566 242.929 -4.07129 137.738C12.8439 75.2734 71.5214 19.1003 119.199 22.0396C181.854 25.9023 199.23 122.979 251.626 154.661C271.017 166.386 300.426 140.91 322.846 145.18Z" fill="#874AFF"/>
</svg>
