<svg width="818" height="627" viewBox="0 0 818 627" fill="none" xmlns="http://www.w3.org/2000/svg">
<path d="M1 42C1 18.804 19.804 0 43 0H818V84H43C19.804 84 1 65.196 1 42Z" fill="#9B51E0"/>
<path fill-rule="evenodd" clip-rule="evenodd" d="M505.903 16.8446C564.806 17.7046 627.087 -16.8191 679.512 10.6067C732.018 38.0747 790.005 -6.92418 811.594 49.1251C831.142 99.8764 818.331 276.012 820.5 330.5C822.755 387.148 817.822 435.928 789.196 484.512C760.606 533.037 679.824 458.945 630.328 484.512C583.5 508.702 535.727 542.607 463.829 588C406.227 614.494 388.244 642.34 337.954 614.494C287.314 586.454 389.649 385.718 369.829 330.5C351.367 279.066 204.764 303 115 214.5C56.1715 156.5 -13.5397 88.6041 2.82852 36.5C21.137 -21.7802 245.437 76.4365 299.094 49.1252C352.764 21.8074 445.937 15.9691 505.903 16.8446Z" fill="#9B51E0"/>
</svg>
