<svg width="1440" height="241" viewBox="0 0 1440 241" fill="none" xmlns="http://www.w3.org/2000/svg">
<rect y="123.904" width="1440" height="117.096" fill="#9B51E0"/>
<path fill-rule="evenodd" clip-rule="evenodd" d="M922.165 36.9861C1045.5 128.669 997.52 0 1059 0C1125.29 0 1109.2 34.4606 1188 69.1345C1280.51 109.84 1440 23.5355 1440 69.1344C1440 113.517 1445.23 192.337 1426.78 218.365C1403.5 251.212 941.151 218.45 878.774 218.365C816.54 218.28 4.58623e-05 269.336 9.70309e-06 218.365C-2.28396e-05 172.492 3.80114e-05 201.517 2.48009e-05 147.007C1.38889e-05 101.981 1.82284e-05 114.16 3.23497e-05 69.1344C4.93347e-05 14.9778 861.5 218.805 808.5 69.1345C776.466 -21.3299 873.429 0.756611 922.165 36.9861Z" fill="#9B51E0"/>
</svg>
