<svg width="1440" height="241" viewBox="0 0 1440 241" fill="none" xmlns="http://www.w3.org/2000/svg">
<rect y="123.904" width="1440" height="117.096" fill="#9B51E0"/>
<path fill-rule="evenodd" clip-rule="evenodd" d="M922.165 36.9861C1045.5 128.669 997.52 0 1059 0C1125.29 0 1109.2 34.4606 1188 69.1345C1280.51 109.84 1440 23.5355 1440 69.1344C1440 113.517 1445.23 192.337 1426.78 218.365C1403.5 251.212 941.151 218.45 878.774 218.365C816.54 218.28 4.58623e-05 269.336 9.70309e-06 218.365C-2.28396e-05 172.492 3.80114e-05 201.517 2.48009e-05 147.007C1.38889e-05 101.981 1.82284e-05 114.16 3.23497e-05 69.1344C4.93347e-05 14.9778 861.5 218.805 808.5 69.1345C776.466 -21.3299 873.429 0.756611 922.165 36.9861Z" fill="#9B51E0"/>
<path d="M88 170H85C83.6739 170 82.4021 170.527 81.4645 171.464C80.5268 172.402 80 173.674 80 175V178H77V182H80V190H84V182H87L88 178H84V175C84 174.735 84.1054 174.48 84.2929 174.293C84.4804 174.105 84.7348 174 85 174H88V170Z" stroke="white" stroke-width="2" stroke-linecap="round" stroke-linejoin="round"/>
<path d="M162 170H178C179.1 170 180 170.9 180 172V184C180 185.1 179.1 186 178 186H162C160.9 186 160 185.1 160 184V172C160 170.9 160.9 170 162 170Z" stroke="white" stroke-width="2" stroke-linecap="round" stroke-linejoin="round"/>
<path d="M180 172L170 179L160 172" stroke="white" stroke-width="2" stroke-linecap="round" stroke-linejoin="round"/>
<path d="M129 170H119C116.239 170 114 172.239 114 175V185C114 187.761 116.239 190 119 190H129C131.761 190 134 187.761 134 185V175C134 172.239 131.761 170 129 170Z" stroke="white" stroke-width="2" stroke-linecap="round" stroke-linejoin="round"/>
<path d="M128 179.37C128.123 180.202 127.981 181.052 127.594 181.799C127.206 182.546 126.593 183.151 125.842 183.53C125.09 183.908 124.238 184.04 123.408 183.906C122.577 183.772 121.81 183.38 121.215 182.785C120.62 182.19 120.228 181.423 120.094 180.592C119.96 179.762 120.092 178.91 120.47 178.158C120.849 177.407 121.454 176.794 122.201 176.406C122.948 176.019 123.798 175.877 124.63 176C125.479 176.126 126.265 176.522 126.872 177.128C127.479 177.735 127.874 178.521 128 179.37Z" stroke="white" stroke-width="2" stroke-linecap="round" stroke-linejoin="round"/>
<path d="M129.5 174.5H129.51" stroke="white" stroke-width="2" stroke-linecap="round" stroke-linejoin="round"/>
<path d="M667.66 221.519C667.563 222.346 667.257 222.985 666.742 223.436C666.23 223.884 665.548 224.107 664.695 224.107C663.771 224.107 663.03 223.776 662.472 223.114C661.917 222.451 661.639 221.565 661.639 220.455V219.703C661.639 218.976 661.768 218.337 662.026 217.786C662.287 217.234 662.656 216.812 663.132 216.518C663.609 216.221 664.16 216.072 664.787 216.072C665.617 216.072 666.283 216.305 666.785 216.771C667.286 217.232 667.578 217.873 667.66 218.693H666.624C666.534 218.07 666.339 217.619 666.038 217.34C665.741 217.061 665.324 216.921 664.787 216.921C664.128 216.921 663.61 217.164 663.234 217.651C662.862 218.138 662.676 218.831 662.676 219.73V220.487C662.676 221.336 662.853 222.011 663.208 222.512C663.562 223.014 664.058 223.264 664.695 223.264C665.268 223.264 665.707 223.135 666.011 222.877C666.319 222.616 666.523 222.163 666.624 221.519H667.66ZM668.654 221.041C668.654 220.471 668.765 219.959 668.987 219.504C669.212 219.05 669.524 218.699 669.921 218.452C670.322 218.205 670.779 218.081 671.291 218.081C672.082 218.081 672.722 218.355 673.208 218.903C673.699 219.451 673.944 220.179 673.944 221.089V221.159C673.944 221.724 673.835 222.233 673.617 222.684C673.402 223.132 673.092 223.481 672.688 223.731C672.286 223.982 671.825 224.107 671.302 224.107C670.514 224.107 669.875 223.833 669.384 223.286C668.897 222.738 668.654 222.013 668.654 221.11V221.041ZM669.653 221.159C669.653 221.803 669.801 222.321 670.099 222.711C670.399 223.101 670.8 223.296 671.302 223.296C671.807 223.296 672.208 223.099 672.505 222.706C672.802 222.308 672.951 221.753 672.951 221.041C672.951 220.403 672.799 219.888 672.494 219.494C672.193 219.096 671.792 218.897 671.291 218.897C670.8 218.897 670.405 219.093 670.104 219.483C669.803 219.873 669.653 220.432 669.653 221.159ZM680.1 221.159C680.1 222.043 679.897 222.756 679.493 223.296C679.088 223.837 678.54 224.107 677.849 224.107C677.144 224.107 676.589 223.884 676.184 223.436V226.234H675.19V218.188H676.098L676.146 218.833C676.551 218.332 677.113 218.081 677.833 218.081C678.531 218.081 679.083 218.344 679.487 218.871C679.896 219.397 680.1 220.129 680.1 221.067V221.159ZM679.106 221.046C679.106 220.391 678.966 219.873 678.687 219.494C678.408 219.114 678.025 218.924 677.538 218.924C676.936 218.924 676.485 219.191 676.184 219.725V222.501C676.481 223.031 676.936 223.296 677.548 223.296C678.025 223.296 678.402 223.108 678.682 222.732C678.965 222.353 679.106 221.791 679.106 221.046ZM683.204 222.544L684.558 218.188H685.621L683.285 224.897C682.923 225.864 682.348 226.347 681.561 226.347L681.373 226.331L681.002 226.261V225.456L681.271 225.477C681.607 225.477 681.868 225.409 682.055 225.273C682.244 225.137 682.4 224.888 682.522 224.526L682.742 223.936L680.669 218.188H681.754L683.204 222.544ZM689.322 219.08C689.171 219.055 689.008 219.042 688.833 219.042C688.181 219.042 687.739 219.32 687.506 219.875V224H686.513V218.188H687.479L687.496 218.86C687.821 218.341 688.283 218.081 688.881 218.081C689.075 218.081 689.222 218.106 689.322 218.156V219.08ZM691.32 224H690.326V218.188H691.32V224ZM690.246 216.647C690.246 216.486 690.294 216.35 690.391 216.239C690.491 216.128 690.638 216.072 690.831 216.072C691.024 216.072 691.171 216.128 691.271 216.239C691.372 216.35 691.422 216.486 691.422 216.647C691.422 216.808 691.372 216.942 691.271 217.05C691.171 217.157 691.024 217.211 690.831 217.211C690.638 217.211 690.491 217.157 690.391 217.05C690.294 216.942 690.246 216.808 690.246 216.647ZM692.679 221.046C692.679 220.14 692.888 219.42 693.307 218.887C693.726 218.35 694.281 218.081 694.972 218.081C695.681 218.081 696.234 218.332 696.632 218.833L696.68 218.188H697.588V223.86C697.588 224.612 697.364 225.205 696.917 225.638C696.472 226.071 695.875 226.288 695.123 226.288C694.704 226.288 694.294 226.199 693.893 226.02C693.492 225.84 693.185 225.595 692.974 225.284L693.49 224.688C693.916 225.214 694.437 225.477 695.053 225.477C695.536 225.477 695.912 225.341 696.181 225.069C696.453 224.797 696.589 224.414 696.589 223.919V223.42C696.191 223.878 695.649 224.107 694.961 224.107C694.281 224.107 693.73 223.833 693.307 223.286C692.888 222.738 692.679 221.991 692.679 221.046ZM693.678 221.159C693.678 221.814 693.812 222.33 694.081 222.706C694.349 223.078 694.725 223.264 695.208 223.264C695.835 223.264 696.295 222.979 696.589 222.41V219.757C696.285 219.202 695.828 218.924 695.219 218.924C694.736 218.924 694.358 219.112 694.086 219.488C693.814 219.864 693.678 220.421 693.678 221.159ZM700.085 218.892C700.526 218.351 701.099 218.081 701.804 218.081C703.032 218.081 703.652 218.774 703.663 220.16V224H702.669V220.154C702.665 219.735 702.569 219.426 702.379 219.225C702.193 219.025 701.901 218.924 701.503 218.924C701.181 218.924 700.898 219.01 700.655 219.182C700.411 219.354 700.222 219.58 700.085 219.859V224H699.092V215.75H700.085V218.892ZM706.499 216.781V218.188H707.583V218.957H706.499V222.561C706.499 222.793 706.547 222.969 706.644 223.087C706.74 223.201 706.905 223.259 707.138 223.259C707.252 223.259 707.41 223.237 707.61 223.194V224C707.349 224.072 707.095 224.107 706.848 224.107C706.404 224.107 706.069 223.973 705.843 223.705C705.618 223.436 705.505 223.055 705.505 222.561V218.957H704.447V218.188H705.505V216.781H706.499ZM716.397 221.159C716.397 222.047 716.193 222.761 715.785 223.302C715.377 223.839 714.829 224.107 714.142 224.107C713.408 224.107 712.84 223.848 712.439 223.329L712.391 224H711.478V215.75H712.471V218.828C712.872 218.33 713.425 218.081 714.131 218.081C714.836 218.081 715.389 218.348 715.791 218.881C716.195 219.415 716.397 220.145 716.397 221.073V221.159ZM715.404 221.046C715.404 220.369 715.273 219.846 715.012 219.478C714.75 219.109 714.374 218.924 713.884 218.924C713.229 218.924 712.758 219.229 712.471 219.837V222.351C712.776 222.96 713.25 223.264 713.895 223.264C714.371 223.264 714.741 223.08 715.006 222.711C715.271 222.342 715.404 221.787 715.404 221.046ZM719.491 222.544L720.845 218.188H721.908L719.572 224.897C719.21 225.864 718.635 226.347 717.848 226.347L717.66 226.331L717.289 226.261V225.456L717.558 225.477C717.894 225.477 718.156 225.409 718.342 225.273C718.532 225.137 718.687 224.888 718.809 224.526L719.029 223.936L716.956 218.188H718.041L719.491 222.544ZM727.016 216.18L729.573 222.561L732.129 216.18H733.467V224H732.436V220.955L732.532 217.667L729.965 224H729.175L726.613 217.684L726.715 220.955V224H725.684V216.18H727.016ZM741.303 220.342C741.303 221.109 741.174 221.778 740.917 222.351C740.659 222.92 740.293 223.355 739.821 223.656C739.348 223.957 738.797 224.107 738.167 224.107C737.551 224.107 737.005 223.957 736.528 223.656C736.052 223.352 735.681 222.92 735.417 222.362C735.155 221.8 735.021 221.15 735.014 220.412V219.848C735.014 219.096 735.144 218.432 735.406 217.855C735.667 217.279 736.036 216.839 736.512 216.534C736.992 216.226 737.54 216.072 738.156 216.072C738.782 216.072 739.334 216.224 739.81 216.529C740.29 216.83 740.659 217.268 740.917 217.845C741.174 218.418 741.303 219.085 741.303 219.848V220.342ZM740.277 219.837C740.277 218.91 740.091 218.199 739.719 217.705C739.346 217.207 738.825 216.958 738.156 216.958C737.504 216.958 736.99 217.207 736.614 217.705C736.242 218.199 736.05 218.887 736.04 219.768V220.342C736.04 221.241 736.228 221.948 736.604 222.464C736.983 222.976 737.504 223.232 738.167 223.232C738.833 223.232 739.348 222.99 739.713 222.507C740.079 222.02 740.267 221.323 740.277 220.417V219.837ZM745.321 222.63L747.555 216.18H748.683L745.783 224H744.87L741.975 216.18H743.097L745.321 222.63ZM754.156 220.385H750.767V223.157H754.704V224H749.736V216.18H754.65V217.028H750.767V219.542H754.156V220.385Z" fill="white"/>
</svg>
