<svg width="502" height="333" viewBox="0 0 502 333" fill="none" xmlns="http://www.w3.org/2000/svg">
<path d="M22.36 127.792C22.84 155.916 33.9162 158.961 47.5181 156.028C63.0567 152.677 75.8102 142.174 82.096 128.278L86.431 118.695C89.3129 112.323 89.41 105.127 86.7007 98.6875C83.9914 92.2484 78.6978 87.0945 71.9844 84.3594H71.9844C68.6602 83.0052 65.0875 82.2856 61.4703 82.2416C57.8531 82.1977 54.2622 82.8304 50.9027 84.1035C47.5431 85.3766 44.4806 87.2652 41.8902 89.6615C39.2997 92.0578 37.2319 94.9149 35.8049 98.0696C21.8555 103.27 19.1005 114.036 22.36 127.792Z" fill="#2F2E41"/>
<path d="M109.822 71.1883L113.997 64.4838C114.507 63.6651 114.814 62.7475 114.897 61.7998C114.98 60.8521 114.836 59.8989 114.475 59.0117C114.114 58.1245 113.546 57.3264 112.814 56.6772C112.082 56.028 111.204 55.5447 110.247 55.2633C109.236 54.9664 108.166 54.9029 107.124 55.0782C106.083 55.2535 105.101 55.6625 104.26 56.271C103.419 56.8796 102.743 57.6701 102.289 58.5767C101.835 59.4833 101.616 60.4798 101.65 61.483L101.896 68.6897L82.2759 119.717L92.9749 121.837L109.822 71.1883Z" fill="#9F616A"/>
<path d="M6.60254 196.98L1.46383 203.051C0.836328 203.793 0.393882 204.659 0.169692 205.586C-0.0544981 206.513 -0.054612 207.476 0.169358 208.403C0.393327 209.33 0.835567 210.197 1.4629 210.938C2.09023 211.68 2.88636 212.277 3.79157 212.685C4.74701 213.115 5.79702 213.323 6.85411 213.29C7.91121 213.257 8.94476 212.985 9.86864 212.497C10.7925 212.008 11.5799 211.317 12.1653 210.481C12.7507 209.645 13.117 208.688 13.2338 207.691L14.0729 200.524L41.1528 152.67L30.8811 149.125L6.60254 196.98Z" fill="#9F616A"/>
<path d="M38.3516 247.492L39.1079 256.115L39.2854 258.127L89.5793 253.536C91.3129 253.351 92.976 252.78 94.4333 251.87C95.8906 250.959 97.1011 249.736 97.9664 248.298C98.8316 246.86 99.3273 245.249 99.413 243.596C99.4987 241.942 99.1721 240.292 98.4597 238.781L82.2398 205.735L76.637 194.321L52.3584 189.004C32.338 203.546 50.3508 219.595 73.0139 235.83C73.901 236.468 74.7975 237.106 75.7032 237.744L38.3516 247.492Z" fill="#2F2E41"/>
<path d="M21.4047 277.351C22.0175 277.434 22.6425 277.366 23.2198 277.154C23.7971 276.942 24.3073 276.593 24.7016 276.14L41.1529 257.24L40.2191 248.379L34.6097 245.184C34.1509 244.923 33.6376 244.76 33.1055 244.706C32.5734 244.652 32.0353 244.708 31.5286 244.872C31.0219 245.035 30.5587 245.301 30.1712 245.651C29.7837 246.001 29.4812 246.427 29.2847 246.9L18.5546 272.697C18.3542 273.179 18.2714 273.697 18.3125 274.214C18.3535 274.73 18.5173 275.231 18.7916 275.679C19.0658 276.127 19.4434 276.51 19.896 276.8C20.3486 277.089 20.8644 277.278 21.4047 277.351Z" fill="#2F2E41"/>
<path opacity="0.2" d="M35.5502 245.72L36.484 256.354L39.1079 256.115L86.7779 251.764C88.5115 251.578 90.1746 251.007 91.6319 250.097C93.0892 249.187 94.2997 247.963 95.165 246.526C96.0302 245.088 96.5259 243.477 96.6116 241.823C96.6973 240.17 96.3707 238.52 95.6583 237.009L82.2397 208.5V205.735L76.637 194.321L52.3584 189.004C32.338 203.546 50.3507 219.595 73.0139 235.83L72.9018 235.972L35.5502 245.72Z" fill="black"/>
<path d="M16.7358 273.806C17.3485 273.889 17.9736 273.821 18.5509 273.609C19.1281 273.397 19.6384 273.048 20.0326 272.595L36.484 253.696L35.5502 244.834L29.9408 241.64C29.4819 241.378 28.9686 241.215 28.4365 241.161C27.9045 241.107 27.3664 241.164 26.8596 241.327C26.3529 241.49 25.8897 241.756 25.5022 242.106C25.1147 242.457 24.8122 242.883 24.6158 243.355L13.8857 269.152C13.6853 269.634 13.6025 270.153 13.6435 270.669C13.6846 271.186 13.8484 271.687 14.1226 272.134C14.3969 272.582 14.7745 272.965 15.227 273.255C15.6796 273.544 16.1954 273.733 16.7358 273.806Z" fill="#2F2E41"/>
<path d="M33.6826 243.948L34.6164 254.582L84.9104 249.99C86.6439 249.805 88.3069 249.234 89.7643 248.324C91.2216 247.414 92.4323 246.191 93.2979 244.753C94.1635 243.316 94.6596 241.705 94.7459 240.052C94.8322 238.398 94.5063 236.749 93.7947 235.237L80.3722 206.728V190.776L47.6895 185.459C26.8812 200.572 47.1556 217.315 71.0343 234.2L33.6826 243.948Z" fill="#2F2E41"/>
<path d="M65.4315 118.995C73.1673 118.995 79.4384 113.044 79.4384 105.702C79.4384 98.3607 73.1673 92.4093 65.4315 92.4093C57.6958 92.4093 51.4247 98.3607 51.4247 105.702C51.4247 113.044 57.6958 118.995 65.4315 118.995Z" fill="#9F616A"/>
<path d="M46.7557 127.857L66.3654 140.264L83.1736 136.719L73.8357 127.857V114.564L58.895 113.678C58.5813 118.986 55.3763 123.844 46.7557 127.857Z" fill="#9F616A"/>
<path d="M43.9543 189.89L80.3722 194.321L88.7763 157.101C92.6805 147.221 90.4404 138.493 83.212 130.698C82.9356 129.386 82.1991 128.202 81.1227 127.338C80.0463 126.475 78.6933 125.983 77.2844 125.942L73.8356 126.085C74.2257 137.838 65.1013 135.007 51.4246 125.198L49.7732 125.669C47.6383 126.276 45.8054 127.593 44.6098 129.379C43.4143 131.164 42.9361 133.298 43.2628 135.391L44.7687 145.037C45.4072 148.861 46.3992 152.625 47.733 156.284C51.4667 166.874 50.1325 178.085 43.9543 189.89Z" fill="#05F296"/>
<path d="M27.1461 150.012L43.9543 155.329L51.4247 129.629L48.8939 128.538C46.7957 127.632 44.4132 127.519 42.2299 128.22C40.0466 128.921 38.226 130.383 37.1376 132.312L27.1461 150.012Z" fill="#05F296"/>
<path d="M76.637 126.085L85.9751 135.832L97.1802 118.995L83.1733 111.906L76.637 126.085Z" fill="#05F296"/>
<path d="M49.0902 101.714C57.8921 104.864 67.2856 104.538 77.1039 101.714V91.0801H49.0902V101.714Z" fill="#2F2E41"/>
<path d="M485.942 284.262L476.285 288.08L411.909 204.839L365.236 289.608L353.166 287.317L388.573 170.473H429.612L485.942 284.262Z" fill="#2F2E41"/>
<path d="M498.897 303.68C498.362 303.819 497.803 303.856 497.252 303.788C496.702 303.721 496.171 303.551 495.69 303.289L475.325 292.161C474.776 291.861 474.306 291.444 473.953 290.944C473.601 290.444 473.374 289.873 473.291 289.277C473.207 288.68 473.27 288.073 473.474 287.503C473.677 286.933 474.017 286.415 474.465 285.989L476.285 284.262L485.942 283.498L500.704 296.947C501.241 297.436 501.631 298.052 501.836 298.731C502.04 299.41 502.051 300.129 501.867 300.813C501.684 301.498 501.312 302.124 500.79 302.628C500.268 303.131 499.615 303.495 498.897 303.68Z" fill="#2F2E41"/>
<path d="M341.015 306.735C341.551 306.874 342.11 306.91 342.66 306.843C343.21 306.776 343.741 306.606 344.222 306.343L364.587 295.216C365.137 294.915 365.606 294.499 365.959 293.999C366.312 293.499 366.539 292.928 366.622 292.331C366.705 291.735 366.642 291.128 366.438 290.558C366.235 289.987 365.895 289.47 365.447 289.044L363.627 287.317L353.97 286.553L339.209 300.002C338.672 300.491 338.281 301.107 338.077 301.786C337.872 302.465 337.861 303.184 338.045 303.868C338.229 304.553 338.6 305.179 339.122 305.682C339.644 306.186 340.297 306.549 341.015 306.735Z" fill="#2F2E41"/>
<path d="M361.213 49.0479L357.189 51.3389L348.851 38.4804C348.339 37.6907 348.035 36.7957 347.964 35.8709C347.892 34.9461 348.057 34.0186 348.442 33.1666C348.828 32.3146 349.424 31.5632 350.18 30.9756C350.936 30.3881 351.83 29.9816 352.786 29.7906C353.636 29.6208 354.514 29.6254 355.362 29.8042C356.211 29.983 357.009 30.3318 357.703 30.8273C358.397 31.3227 358.972 31.9534 359.389 32.6769C359.805 33.4005 360.054 34.2002 360.118 35.0224L361.213 49.0479Z" fill="#FFB9B9"/>
<path d="M472.669 149.158L474.339 144.996L489.27 150.208C490.187 150.529 491.009 151.053 491.668 151.738C492.326 152.423 492.802 153.249 493.054 154.145C493.305 155.041 493.327 155.981 493.115 156.886C492.904 157.792 492.467 158.635 491.84 159.347C491.282 159.979 490.589 160.491 489.806 160.848C489.023 161.205 488.168 161.399 487.3 161.418C486.431 161.436 485.569 161.277 484.77 160.953C483.971 160.629 483.255 160.146 482.668 159.538L472.669 149.158Z" fill="#FFB9B9"/>
<path d="M409.495 94.8688C416.161 94.8688 421.566 89.7402 421.566 83.4136C421.566 77.0871 416.161 71.9584 409.495 71.9584C402.829 71.9584 397.425 77.0871 397.425 83.4136C397.425 89.7402 402.829 94.8688 409.495 94.8688Z" fill="#FFB9B9"/>
<path d="M419.956 107.851H403.057V90.2868L417.542 88.7593L419.956 107.851Z" fill="#FFB9B9"/>
<path d="M432.027 175.055H386.159C387.776 150.768 389.057 127.296 386.159 113.961L388.826 101.812C389.195 100.128 390.219 98.6384 391.693 97.6386C393.167 96.6388 394.984 96.2021 396.781 96.4154L403.057 97.1598C407.307 104.251 412.444 104.182 418.347 97.9235H425.906C426.914 97.9235 427.912 98.1143 428.841 98.4847C429.77 98.8551 430.612 99.3976 431.318 100.081C432.023 100.764 432.578 101.573 432.95 102.462C433.322 103.351 433.503 104.302 433.483 105.258C435.452 113.815 436.107 122.597 435.428 131.333L432.027 175.055Z" fill="#3F3D56"/>
<path d="M354.775 49.0478L361.213 45.9933L395.815 100.215L386.159 113.961L354.775 49.0478Z" fill="#3F3D56"/>
<path d="M472.761 151.33L478.262 146.926L449.029 108.051C446.169 104.248 442.227 101.297 437.663 99.5434C433.1 97.79 428.104 97.3068 423.262 98.1506L422.339 98.3113L433.393 116.669L447.952 127.13L472.761 151.33Z" fill="#3F3D56"/>
<path d="M423.455 76.6513C423.455 76.6513 425.71 71.9422 419.846 69.8016C419.846 69.8016 414.884 62.0957 404.959 67.233C404.959 67.233 398.193 69.8016 398.193 76.6513C398.193 83.5011 395.937 84.7854 395.937 84.7854C395.937 84.7854 399.296 81.5152 400.198 78.9465C401.1 76.3779 408.117 75.7951 410.824 78.3638C413.53 80.9324 420.297 80.5043 420.297 80.5043L419.846 89.9227C419.846 89.9227 422.101 84.3573 423.004 84.3573C423.906 84.3573 424.808 76.6513 423.455 76.6513Z" fill="#2F2E41"/>
<path d="M422.34 333C463.13 333 496.197 331.366 496.197 329.349C496.197 327.333 463.13 325.699 422.34 325.699C381.55 325.699 348.483 327.333 348.483 329.349C348.483 331.366 381.55 333 422.34 333Z" fill="#E6E6E6"/>
<path d="M53.5835 331.279C75.144 331.279 92.6221 330.415 92.6221 329.349C92.6221 328.284 75.144 327.42 53.5835 327.42C32.0231 327.42 14.5449 328.284 14.5449 329.349C14.5449 330.415 32.0231 331.279 53.5835 331.279Z" fill="#E6E6E6"/>
<path d="M351.851 64.2285L114.523 84.4144C113.358 84.5122 112.199 84.1673 111.302 83.4555C110.404 82.7436 109.84 81.7229 109.734 80.6173L104.458 24.7475C104.355 23.6416 104.719 22.5421 105.469 21.6901C106.219 20.8381 107.294 20.3032 108.459 20.2028L345.787 0.0169218C346.952 -0.0808832 348.111 0.263956 349.009 0.975793C349.906 1.68763 350.47 2.70834 350.576 3.81402L355.852 59.6838C355.955 60.7897 355.592 61.8892 354.842 62.7412C354.091 63.5932 353.016 64.1281 351.851 64.2285Z" fill="#05F296"/>
<path d="M142.256 67.2797C152.491 67.2797 160.789 59.4052 160.789 49.6917C160.789 39.9781 152.491 32.1036 142.256 32.1036C132.021 32.1036 123.723 39.9781 123.723 49.6917C123.723 59.4052 132.021 67.2797 142.256 67.2797Z" fill="white"/>
<path d="M183.784 34.3872C182.969 34.4579 182.217 34.8326 181.693 35.429C181.169 36.0253 180.916 36.7946 180.989 37.568C181.062 38.3414 181.456 39.0556 182.083 39.554C182.71 40.0525 183.52 40.2943 184.336 40.2264L329.369 27.8906C329.773 27.8568 330.167 27.7476 330.527 27.5694C330.887 27.3911 331.206 27.1472 331.466 26.8517C331.727 26.5562 331.924 26.2149 332.045 25.8472C332.166 25.4795 332.21 25.0927 332.174 24.709C332.138 24.3252 332.022 23.952 331.834 23.6107C331.645 23.2693 331.388 22.9666 331.076 22.7198C330.764 22.473 330.404 22.2869 330.017 22.1722C329.629 22.0575 329.222 22.0164 328.817 22.0514L183.784 34.3872Z" fill="white"/>
<path d="M185.438 51.905C185.034 51.9386 184.64 52.0477 184.28 52.2259C183.92 52.4041 183.6 52.6479 183.34 52.9435C183.079 53.239 182.882 53.5804 182.761 53.9482C182.639 54.316 182.595 54.7029 182.632 55.0868C182.668 55.4707 182.784 55.844 182.972 56.1854C183.161 56.5268 183.418 56.8296 183.73 57.0765C184.042 57.3233 184.402 57.5093 184.79 57.6239C185.178 57.7385 185.585 57.7794 185.99 57.7442L331.023 45.4085C331.428 45.3746 331.821 45.2654 332.181 45.0872C332.541 44.9089 332.86 44.665 333.121 44.3695C333.381 44.074 333.578 43.7327 333.699 43.365C333.821 42.9973 333.864 42.6106 333.828 42.2268C333.792 41.843 333.676 41.4698 333.488 41.1285C333.3 40.7872 333.042 40.4844 332.73 40.2376C332.419 39.9908 332.059 39.8047 331.671 39.69C331.284 39.5753 330.876 39.5343 330.472 39.5692L185.438 51.905Z" fill="white"/>
</svg>
